<svg width="57" height="20" viewBox="0 0 57 20" fill="none" xmlns="http://www.w3.org/2000/svg">
<rect x="0.5" y="0.5" width="56" height="19" rx="1.5" fill="#2F343D"/>
<rect x="0.5" y="0.5" width="56" height="19" rx="1.5" stroke="#CBCED1"/>
<path d="M7.9304 14H4.83665V5.27273H7.95597C8.83381 5.27273 9.58949 5.44744 10.223 5.79688C10.8565 6.14347 11.3438 6.64205 11.6847 7.29261C12.0284 7.94318 12.2003 8.72159 12.2003 9.62784C12.2003 10.5369 12.0284 11.3182 11.6847 11.9716C11.3438 12.625 10.8537 13.1264 10.2145 13.4759C9.57812 13.8253 8.81676 14 7.9304 14ZM6.68182 12.419H7.85369C8.39915 12.419 8.85795 12.3224 9.23011 12.1293C9.60511 11.9332 9.88636 11.6307 10.0739 11.2216C10.2642 10.8097 10.3594 10.2784 10.3594 9.62784C10.3594 8.98295 10.2642 8.45597 10.0739 8.04688C9.88636 7.63778 9.60653 7.33665 9.23438 7.14347C8.86222 6.95028 8.40341 6.85369 7.85795 6.85369H6.68182V12.419ZM16.516 14.1278C15.8427 14.1278 15.2631 13.9915 14.7773 13.7188C14.2944 13.4432 13.9222 13.054 13.6609 12.5511C13.3995 12.0455 13.2688 11.4474 13.2688 10.7571C13.2688 10.0838 13.3995 9.4929 13.6609 8.98438C13.9222 8.47585 14.2901 8.07955 14.7646 7.79545C15.2418 7.51136 15.8015 7.36932 16.4435 7.36932C16.8754 7.36932 17.2773 7.43892 17.6495 7.57812C18.0245 7.71449 18.3512 7.92045 18.6296 8.19602C18.9109 8.47159 19.1296 8.81818 19.2859 9.2358C19.4421 9.65057 19.5202 10.1364 19.5202 10.6932V11.1918H13.9933V10.0668H17.8114C17.8114 9.8054 17.7546 9.57386 17.641 9.37216C17.5273 9.17045 17.3697 9.01278 17.168 8.89915C16.9691 8.78267 16.7376 8.72443 16.4734 8.72443C16.1978 8.72443 15.9535 8.78835 15.7404 8.91619C15.5302 9.04119 15.3654 9.21023 15.2461 9.4233C15.1268 9.63352 15.0657 9.8679 15.0629 10.1264V11.196C15.0629 11.5199 15.1225 11.7997 15.2418 12.0355C15.364 12.2713 15.5359 12.4531 15.7575 12.581C15.979 12.7088 16.2418 12.7727 16.5458 12.7727C16.7475 12.7727 16.9322 12.7443 17.0998 12.6875C17.2674 12.6307 17.4109 12.5455 17.5302 12.4318C17.6495 12.3182 17.7404 12.179 17.8029 12.0142L19.4819 12.125C19.3967 12.5284 19.2219 12.8807 18.9577 13.1818C18.6964 13.4801 18.3583 13.7131 17.9435 13.8807C17.5316 14.0455 17.0558 14.1278 16.516 14.1278ZM24.2248 7.45455V8.81818H20.185V7.45455H24.2248ZM21.1097 14V6.98153C21.1097 6.5071 21.2021 6.11364 21.3867 5.80114C21.5742 5.48864 21.8299 5.25426 22.1538 5.09801C22.4776 4.94176 22.8455 4.86364 23.2575 4.86364C23.5359 4.86364 23.7901 4.88494 24.0202 4.92756C24.2532 4.97017 24.4265 5.00852 24.5401 5.04261L24.2163 6.40625C24.1452 6.38352 24.0572 6.36222 23.9521 6.34233C23.8498 6.32244 23.7447 6.3125 23.6367 6.3125C23.3697 6.3125 23.1836 6.375 23.0785 6.5C22.9734 6.62216 22.9208 6.79403 22.9208 7.01562V14H21.1097ZM28.0824 14.1278C27.4091 14.1278 26.8295 13.9915 26.3438 13.7188C25.8608 13.4432 25.4886 13.054 25.2273 12.5511C24.9659 12.0455 24.8352 11.4474 24.8352 10.7571C24.8352 10.0838 24.9659 9.4929 25.2273 8.98438C25.4886 8.47585 25.8565 8.07955 26.331 7.79545C26.8082 7.51136 27.3679 7.36932 28.0099 7.36932C28.4418 7.36932 28.8438 7.43892 29.2159 7.57812C29.5909 7.71449 29.9176 7.92045 30.196 8.19602C30.4773 8.47159 30.696 8.81818 30.8523 9.2358C31.0085 9.65057 31.0866 10.1364 31.0866 10.6932V11.1918H25.5597V10.0668H29.3778C29.3778 9.8054 29.321 9.57386 29.2074 9.37216C29.0938 9.17045 28.9361 9.01278 28.7344 8.89915C28.5355 8.78267 28.304 8.72443 28.0398 8.72443C27.7642 8.72443 27.5199 8.78835 27.3068 8.91619C27.0966 9.04119 26.9318 9.21023 26.8125 9.4233C26.6932 9.63352 26.6321 9.8679 26.6293 10.1264V11.196C26.6293 11.5199 26.6889 11.7997 26.8082 12.0355C26.9304 12.2713 27.1023 12.4531 27.3239 12.581C27.5455 12.7088 27.8082 12.7727 28.1122 12.7727C28.3139 12.7727 28.4986 12.7443 28.6662 12.6875C28.8338 12.6307 28.9773 12.5455 29.0966 12.4318C29.2159 12.3182 29.3068 12.179 29.3693 12.0142L31.0483 12.125C30.9631 12.5284 30.7884 12.8807 30.5241 13.1818C30.2628 13.4801 29.9247 13.7131 29.5099 13.8807C29.098 14.0455 28.6222 14.1278 28.0824 14.1278ZM34.0866 10.2159V14H32.2713V7.45455H34.0014V8.60938H34.0781C34.223 8.22869 34.4659 7.92756 34.8068 7.70597C35.1477 7.48153 35.5611 7.36932 36.0469 7.36932C36.5014 7.36932 36.8977 7.46875 37.2358 7.66761C37.5739 7.86648 37.8366 8.15057 38.0241 8.51989C38.2116 8.88636 38.3054 9.32386 38.3054 9.83239V14H36.4901V10.1562C36.4929 9.75568 36.3906 9.44318 36.1832 9.21875C35.9759 8.99148 35.6903 8.87784 35.3267 8.87784C35.0824 8.87784 34.8665 8.9304 34.679 9.03551C34.4943 9.14062 34.3494 9.29403 34.2443 9.49574C34.142 9.6946 34.0895 9.93466 34.0866 10.2159ZM45.1822 9.32102L43.5202 9.4233C43.4918 9.28125 43.4308 9.15341 43.337 9.03977C43.2433 8.9233 43.1197 8.83097 42.9663 8.76278C42.8157 8.69176 42.6353 8.65625 42.4251 8.65625C42.1438 8.65625 41.9066 8.71591 41.7134 8.83523C41.5202 8.9517 41.4237 9.10795 41.4237 9.30398C41.4237 9.46023 41.4862 9.59233 41.6112 9.70028C41.7362 9.80824 41.9506 9.89489 42.2546 9.96023L43.4393 10.1989C44.0756 10.3295 44.5501 10.5398 44.8626 10.8295C45.1751 11.1193 45.3313 11.5 45.3313 11.9716C45.3313 12.4006 45.2049 12.777 44.9521 13.1009C44.7021 13.4247 44.3583 13.6776 43.9208 13.8594C43.4862 14.0384 42.9847 14.1278 42.4165 14.1278C41.5501 14.1278 40.8597 13.9474 40.3455 13.5866C39.8342 13.223 39.5344 12.7287 39.4464 12.1037L41.2319 12.0099C41.2859 12.2741 41.4165 12.4759 41.6239 12.6151C41.8313 12.7514 42.0969 12.8196 42.4208 12.8196C42.739 12.8196 42.9947 12.7585 43.1879 12.6364C43.3839 12.5114 43.4833 12.3509 43.4862 12.1548C43.4833 11.9901 43.4137 11.8551 43.2773 11.75C43.141 11.642 42.9308 11.5597 42.6467 11.5028L41.5131 11.277C40.8739 11.1491 40.3981 10.9276 40.0856 10.6122C39.7759 10.2969 39.6211 9.89489 39.6211 9.40625C39.6211 8.9858 39.7347 8.62358 39.962 8.3196C40.1921 8.01562 40.5146 7.78125 40.9293 7.61648C41.3469 7.4517 41.8356 7.36932 42.3952 7.36932C43.2219 7.36932 43.8725 7.54403 44.3469 7.89347C44.8242 8.2429 45.1026 8.71875 45.1822 9.32102ZM49.4574 14.1278C48.7841 14.1278 48.2045 13.9915 47.7188 13.7188C47.2358 13.4432 46.8636 13.054 46.6023 12.5511C46.3409 12.0455 46.2102 11.4474 46.2102 10.7571C46.2102 10.0838 46.3409 9.4929 46.6023 8.98438C46.8636 8.47585 47.2315 8.07955 47.706 7.79545C48.1832 7.51136 48.7429 7.36932 49.3849 7.36932C49.8168 7.36932 50.2188 7.43892 50.5909 7.57812C50.9659 7.71449 51.2926 7.92045 51.571 8.19602C51.8523 8.47159 52.071 8.81818 52.2273 9.2358C52.3835 9.65057 52.4616 10.1364 52.4616 10.6932V11.1918H46.9347V10.0668H50.7528C50.7528 9.8054 50.696 9.57386 50.5824 9.37216C50.4688 9.17045 50.3111 9.01278 50.1094 8.89915C49.9105 8.78267 49.679 8.72443 49.4148 8.72443C49.1392 8.72443 48.8949 8.78835 48.6818 8.91619C48.4716 9.04119 48.3068 9.21023 48.1875 9.4233C48.0682 9.63352 48.0071 9.8679 48.0043 10.1264V11.196C48.0043 11.5199 48.0639 11.7997 48.1832 12.0355C48.3054 12.2713 48.4773 12.4531 48.6989 12.581C48.9205 12.7088 49.1832 12.7727 49.4872 12.7727C49.6889 12.7727 49.8736 12.7443 50.0412 12.6875C50.2088 12.6307 50.3523 12.5455 50.4716 12.4318C50.5909 12.3182 50.6818 12.179 50.7443 12.0142L52.4233 12.125C52.3381 12.5284 52.1634 12.8807 51.8991 13.1818C51.6378 13.4801 51.2997 13.7131 50.8849 13.8807C50.473 14.0455 49.9972 14.1278 49.4574 14.1278Z" fill="white"/>
</svg>
