<svg width="70" height="20" viewBox="0 0 70 20" fill="none" xmlns="http://www.w3.org/2000/svg">
<rect width="70" height="20" rx="2" fill="#156FF5"/>
<path d="M5.17259 14V5.27273H11.0533V6.79403H7.01776V8.87358H10.7507V10.3949H7.01776V12.4787H11.0703V14H5.17259ZM14.3015 10.2159V14H12.4862V7.45455H14.2163V8.60938H14.293C14.4379 8.22869 14.6808 7.92756 15.0217 7.70597C15.3626 7.48153 15.7759 7.36932 16.2617 7.36932C16.7163 7.36932 17.1126 7.46875 17.4506 7.66761C17.7887 7.86648 18.0515 8.15057 18.239 8.51989C18.4265 8.88636 18.5202 9.32386 18.5202 9.83239V14H16.7049V10.1562C16.7077 9.75568 16.6055 9.44318 16.3981 9.21875C16.1907 8.99148 15.9052 8.87784 15.5415 8.87784C15.2972 8.87784 15.0813 8.9304 14.8938 9.03551C14.7092 9.14062 14.5643 9.29403 14.4592 9.49574C14.3569 9.6946 14.3043 9.93466 14.3015 10.2159ZM23.4325 7.45455V8.81818H19.4908V7.45455H23.4325ZM20.3857 5.88636H22.201V11.9886C22.201 12.1562 22.2266 12.2869 22.2777 12.3807C22.3288 12.4716 22.3999 12.5355 22.4908 12.5724C22.5845 12.6094 22.6925 12.6278 22.8146 12.6278C22.8999 12.6278 22.9851 12.6207 23.0703 12.6065C23.1555 12.5895 23.2209 12.5767 23.2663 12.5682L23.5518 13.919C23.4609 13.9474 23.3331 13.9801 23.1683 14.017C23.0036 14.0568 22.8033 14.081 22.5675 14.0895C22.13 14.1065 21.7464 14.0483 21.4169 13.9148C21.0902 13.7812 20.8359 13.5739 20.6541 13.2926C20.4723 13.0114 20.3828 12.6562 20.3857 12.2273V5.88636ZM27.5277 14.1278C26.8544 14.1278 26.2749 13.9915 25.7891 13.7188C25.3061 13.4432 24.9339 13.054 24.6726 12.5511C24.4112 12.0455 24.2805 11.4474 24.2805 10.7571C24.2805 10.0838 24.4112 9.4929 24.6726 8.98438C24.9339 8.47585 25.3018 8.07955 25.7763 7.79545C26.2536 7.51136 26.8132 7.36932 27.4553 7.36932C27.8871 7.36932 28.2891 7.43892 28.6612 7.57812C29.0362 7.71449 29.3629 7.92045 29.6413 8.19602C29.9226 8.47159 30.1413 8.81818 30.2976 9.2358C30.4538 9.65057 30.532 10.1364 30.532 10.6932V11.1918H25.005V10.0668H28.8232C28.8232 9.8054 28.7663 9.57386 28.6527 9.37216C28.5391 9.17045 28.3814 9.01278 28.1797 8.89915C27.9808 8.78267 27.7493 8.72443 27.4851 8.72443C27.2095 8.72443 26.9652 8.78835 26.7521 8.91619C26.5419 9.04119 26.3771 9.21023 26.2578 9.4233C26.1385 9.63352 26.0774 9.8679 26.0746 10.1264V11.196C26.0746 11.5199 26.1342 11.7997 26.2536 12.0355C26.3757 12.2713 26.5476 12.4531 26.7692 12.581C26.9908 12.7088 27.2536 12.7727 27.5575 12.7727C27.7592 12.7727 27.9439 12.7443 28.1115 12.6875C28.2791 12.6307 28.4226 12.5455 28.5419 12.4318C28.6612 12.3182 28.7521 12.179 28.8146 12.0142L30.4936 12.125C30.4084 12.5284 30.2337 12.8807 29.9695 13.1818C29.7081 13.4801 29.37 13.7131 28.9553 13.8807C28.5433 14.0455 28.0675 14.1278 27.5277 14.1278ZM31.7166 14V7.45455H33.4766V8.59659H33.5447C33.6641 8.19034 33.8643 7.88352 34.1456 7.67614C34.4268 7.46591 34.7507 7.3608 35.1172 7.3608C35.2081 7.3608 35.3061 7.36648 35.4112 7.37784C35.5163 7.3892 35.6087 7.40483 35.6882 7.42472V9.03551C35.603 9.00994 35.4851 8.98722 35.3345 8.96733C35.1839 8.94744 35.0462 8.9375 34.9212 8.9375C34.6541 8.9375 34.4155 8.99574 34.2053 9.11222C33.9979 9.22585 33.8331 9.38494 33.7109 9.58949C33.5916 9.79403 33.532 10.0298 33.532 10.2969V14H31.7166ZM36.6268 16.4545V7.45455H38.4165V8.55398H38.4975C38.5771 8.37784 38.6921 8.19886 38.8427 8.01705C38.9961 7.83239 39.195 7.67898 39.4393 7.55682C39.6864 7.43182 39.9933 7.36932 40.3597 7.36932C40.837 7.36932 41.2773 7.49432 41.6808 7.74432C42.0842 7.99148 42.4066 8.36506 42.6481 8.86506C42.8896 9.36222 43.0103 9.9858 43.0103 10.7358C43.0103 11.4659 42.8924 12.0824 42.6566 12.5852C42.4237 13.0852 42.1055 13.4645 41.7021 13.723C41.3015 13.9787 40.8526 14.1065 40.3555 14.1065C40.0032 14.1065 39.7035 14.0483 39.4563 13.9318C39.212 13.8153 39.0117 13.669 38.8555 13.4929C38.6992 13.3139 38.5799 13.1335 38.4975 12.9517H38.4421V16.4545H36.6268ZM38.4038 10.7273C38.4038 11.1165 38.4577 11.456 38.5657 11.7457C38.6737 12.0355 38.8299 12.2614 39.0344 12.4233C39.239 12.5824 39.4876 12.6619 39.7802 12.6619C40.0756 12.6619 40.3256 12.581 40.5302 12.419C40.7347 12.2543 40.8896 12.027 40.9947 11.7372C41.1026 11.4446 41.1566 11.108 41.1566 10.7273C41.1566 10.3494 41.104 10.017 40.9989 9.73011C40.8938 9.44318 40.739 9.21875 40.5344 9.05682C40.3299 8.89489 40.0785 8.81392 39.7802 8.81392C39.4847 8.81392 39.2347 8.89205 39.0302 9.0483C38.8285 9.20455 38.6737 9.42614 38.5657 9.71307C38.4577 10 38.4038 10.3381 38.4038 10.7273ZM44.2205 14V7.45455H45.9805V8.59659H46.0487C46.168 8.19034 46.3683 7.88352 46.6495 7.67614C46.9308 7.46591 47.2546 7.3608 47.6211 7.3608C47.712 7.3608 47.81 7.36648 47.9151 7.37784C48.0202 7.3892 48.1126 7.40483 48.1921 7.42472V9.03551C48.1069 9.00994 47.989 8.98722 47.8384 8.96733C47.6879 8.94744 47.5501 8.9375 47.4251 8.9375C47.158 8.9375 46.9194 8.99574 46.7092 9.11222C46.5018 9.22585 46.337 9.38494 46.2148 9.58949C46.0955 9.79403 46.0359 10.0298 46.0359 10.2969V14H44.2205ZM49.1307 14V7.45455H50.946V14H49.1307ZM50.0426 6.6108C49.7727 6.6108 49.5412 6.52131 49.348 6.34233C49.1577 6.16051 49.0625 5.94318 49.0625 5.69034C49.0625 5.44034 49.1577 5.22585 49.348 5.04688C49.5412 4.86506 49.7727 4.77415 50.0426 4.77415C50.3125 4.77415 50.5426 4.86506 50.733 5.04688C50.9261 5.22585 51.0227 5.44034 51.0227 5.69034C51.0227 5.94318 50.9261 6.16051 50.733 6.34233C50.5426 6.52131 50.3125 6.6108 50.0426 6.6108ZM57.8462 9.32102L56.1843 9.4233C56.1559 9.28125 56.0948 9.15341 56.0011 9.03977C55.9073 8.9233 55.7837 8.83097 55.6303 8.76278C55.4798 8.69176 55.2994 8.65625 55.0891 8.65625C54.8079 8.65625 54.5707 8.71591 54.3775 8.83523C54.1843 8.9517 54.0877 9.10795 54.0877 9.30398C54.0877 9.46023 54.1502 9.59233 54.2752 9.70028C54.4002 9.80824 54.6147 9.89489 54.9187 9.96023L56.1033 10.1989C56.7397 10.3295 57.2141 10.5398 57.5266 10.8295C57.8391 11.1193 57.9954 11.5 57.9954 11.9716C57.9954 12.4006 57.869 12.777 57.6161 13.1009C57.3661 13.4247 57.0224 13.6776 56.5849 13.8594C56.1502 14.0384 55.6488 14.1278 55.0806 14.1278C54.2141 14.1278 53.5238 13.9474 53.0096 13.5866C52.4982 13.223 52.1985 12.7287 52.1104 12.1037L53.896 12.0099C53.9499 12.2741 54.0806 12.4759 54.288 12.6151C54.4954 12.7514 54.761 12.8196 55.0849 12.8196C55.4031 12.8196 55.6587 12.7585 55.8519 12.6364C56.0479 12.5114 56.1474 12.3509 56.1502 12.1548C56.1474 11.9901 56.0778 11.8551 55.9414 11.75C55.805 11.642 55.5948 11.5597 55.3107 11.5028L54.1772 11.277C53.538 11.1491 53.0621 10.9276 52.7496 10.6122C52.44 10.2969 52.2852 9.89489 52.2852 9.40625C52.2852 8.9858 52.3988 8.62358 52.6261 8.3196C52.8562 8.01562 53.1786 7.78125 53.5934 7.61648C54.011 7.4517 54.4996 7.36932 55.0593 7.36932C55.886 7.36932 56.5366 7.54403 57.011 7.89347C57.4883 8.2429 57.7667 8.71875 57.8462 9.32102ZM62.1214 14.1278C61.4482 14.1278 60.8686 13.9915 60.3828 13.7188C59.8999 13.4432 59.5277 13.054 59.2663 12.5511C59.005 12.0455 58.8743 11.4474 58.8743 10.7571C58.8743 10.0838 59.005 9.4929 59.2663 8.98438C59.5277 8.47585 59.8956 8.07955 60.37 7.79545C60.8473 7.51136 61.407 7.36932 62.049 7.36932C62.4808 7.36932 62.8828 7.43892 63.255 7.57812C63.63 7.71449 63.9567 7.92045 64.2351 8.19602C64.5163 8.47159 64.7351 8.81818 64.8913 9.2358C65.0476 9.65057 65.1257 10.1364 65.1257 10.6932V11.1918H59.5987V10.0668H63.4169C63.4169 9.8054 63.3601 9.57386 63.2464 9.37216C63.1328 9.17045 62.9751 9.01278 62.7734 8.89915C62.5746 8.78267 62.343 8.72443 62.0788 8.72443C61.8033 8.72443 61.5589 8.78835 61.3459 8.91619C61.1357 9.04119 60.9709 9.21023 60.8516 9.4233C60.7322 9.63352 60.6712 9.8679 60.6683 10.1264V11.196C60.6683 11.5199 60.728 11.7997 60.8473 12.0355C60.9695 12.2713 61.1413 12.4531 61.3629 12.581C61.5845 12.7088 61.8473 12.7727 62.1513 12.7727C62.353 12.7727 62.5376 12.7443 62.7053 12.6875C62.8729 12.6307 63.0163 12.5455 63.1357 12.4318C63.255 12.3182 63.3459 12.179 63.4084 12.0142L65.0874 12.125C65.0021 12.5284 64.8274 12.8807 64.5632 13.1818C64.3018 13.4801 63.9638 13.7131 63.549 13.8807C63.1371 14.0455 62.6612 14.1278 62.1214 14.1278Z" fill="white"/>
</svg>
